<?xml version="1.0" standalone="no"?>
<!DOCTYPE svg PUBLIC "-//W3C//DTD SVG 20010904//EN"
 "http://www.w3.org/TR/2001/REC-SVG-20010904/DTD/svg10.dtd">
<svg version="1.0" xmlns="http://www.w3.org/2000/svg"
 width="200.000000pt" height="200.000000pt" viewBox="0 0 200.000000 200.000000"
 preserveAspectRatio="xMidYMid meet">
<metadata>
Created by potrace 1.11, written by Peter Selinger 2001-2013
</metadata>
<g transform="translate(0.000000,200.000000) scale(0.100000,-0.100000)"
fill="#000000" stroke="none">
<path d="M825 1964 c-409 -77 -712 -372 -795 -774 -18 -86 -21 -127 -17 -230
10 -256 97 -464 268 -645 124 -130 284 -224 469 -273 82 -22 116 -25 250 -25
135 0 167 3 250 25 366 98 635 372 721 734 30 125 30 318 1 437 -75 303 -279
552 -558 678 -168 76 -413 107 -589 73z m210 -100 c-43 -114 -35 -156 45 -249
54 -63 70 -96 70 -147 0 -49 -29 -102 -76 -142 -43 -35 -52 -33 -20 5 42 50
36 88 -25 155 -53 59 -53 56 -33 134 l6 25 -19 -26 c-10 -15 -33 -46 -50 -69
-20 -26 -33 -55 -33 -74 -1 -29 -2 -28 -30 24 -66 126 -53 179 75 304 51 50
96 101 100 114 4 13 9 21 11 19 3 -2 -7 -35 -21 -73z m-59 -399 c-5 -18 1 -33
24 -58 36 -42 38 -66 7 -95 l-23 -22 -27 41 c-33 50 -34 82 -4 126 26 39 31
41 23 8z m-261 -152 c226 -50 302 -52 562 -14 268 39 276 39 314 1 23 -23 29
-35 24 -52 -19 -64 -117 -111 -192 -92 -38 9 -38 9 -58 -31 -68 -135 -354
-177 -547 -79 -28 14 -95 68 -149 119 -111 107 -161 141 -239 166 -40 12 -49
18 -35 22 38 10 161 -5 320 -40z m-195 -510 c0 -92 4 -153 9 -148 9 10 41 83
101 228 l32 77 65 0 c48 0 64 -3 60 -12 -3 -7 -37 -82 -76 -166 -39 -83 -71
-157 -71 -162 0 -6 36 -85 80 -177 44 -91 80 -168 80 -170 0 -1 -31 -3 -70 -3
-42 0 -70 4 -70 10 0 18 -124 290 -132 290 -5 0 -8 -67 -8 -150 l0 -150 -50 0
-50 0 0 133 c0 74 -3 229 -7 345 l-6 212 56 0 57 0 0 -157z m640 107 l0 -50
-115 0 -115 0 0 -50 c0 -47 2 -50 35 -64 19 -8 55 -29 80 -46 25 -17 61 -34
80 -37 31 -5 35 -9 35 -34 0 -26 -4 -29 -30 -29 -34 0 -66 14 -137 62 -41 28
-57 33 -109 33 l-62 0 -1 133 -1 132 170 0 170 0 0 -50z m199 -92 c35 -79 78
-182 95 -230 17 -49 34 -88 38 -88 3 0 4 104 1 230 l-6 230 57 0 58 0 -4 -345
-3 -345 -51 0 c-48 0 -51 1 -69 38 -35 72 -138 308 -161 367 l-23 60 0 -232
-1 -233 -50 0 -50 0 0 203 c0 111 -3 266 -7 345 l-6 142 60 0 59 0 63 -142z
m-429 -328 l0 -119 113 -3 112 -3 3 -48 3 -47 -165 0 -166 0 0 170 0 170 50 0
50 0 0 -120z"/>
<path d="M1436 1269 c-33 -26 -33 -54 -1 -75 22 -14 32 -15 65 -5 35 10 70 42
70 63 0 3 -7 14 -16 22 -22 23 -86 20 -118 -5z"/>
</g>
</svg>
